# xmcd
#
# Track frame offsets:
#	151
#	17911
#	33553
#	45381
#	56616
#	67179
#	82473
#	98092
#	112422
#	124761
#	141560
#	156836
#	173739
#	187373
#	209321
#	223375
#	234619
#	249141
#	263497
#	276867
#
# Disc length: 3894 seconds
#
# Revision: 1
# Processed by: cddbd v1.5.2PL0 Copyright (c) Steve Scherf et al.
# Submitted via: audiograbber 1.83.01
#
DISCID=3d0f3414
DTITLE=RMCMA - Record Vol 01
DYEAR=1999
DGENRE=Country
TTITLE0=Since You´ve Been Gone - Nat Chavis
TTITLE1=Ain´t It Funny How Things Change - Dave Martin
TTITLE2=Stone Cold Crazy - Rusty Creech
TTITLE3=Rockabilly Bop - Leo Hayes
TTITLE4=How Much Hurtin - Naomi Jean
TTITLE5=Party Hound - Art Baily
TTITLE6=New Flame Put Out The Fire - Bobby Lewis
TTITLE7=Blue Jeans, High Hells And Fire Red Hair - Peter Britt
TTITLE8=Some Monday - Sandy Randell
TTITLE9=What Did I Ever Do - Jim Mclllwain
TTITLE10=Momma - Nat Charvis
TTITLE11=My First Real Broken Hearts - Dave Martin
TTITLE12=Some Angels Don´t Fly - Rusty Creech
TTITLE13=Lucky I Have You - Leo Hayes
TTITLE14=Burnt Mill Road - Art Baoily
TTITLE15=Champagne In A Dixie Cup - Rusty Creech
TTITLE16=Statue Of A Fool - Dave Martin
TTITLE17=Another Heart - Sandy Randall
TTITLE18=Another Time Another Place - Danny Edwards
TTITLE19=Just Can´t One Night Stand Here - Jim Mclllwain
EXTD=
EXTT0=
EXTT1=
EXTT2=
EXTT3=
EXTT4=
EXTT5=
EXTT6=
EXTT7=
EXTT8=
EXTT9=
EXTT10=
EXTT11=
EXTT12=
EXTT13=
EXTT14=
EXTT15=
EXTT16=
EXTT17=
EXTT18=
EXTT19=
PLAYORDER=
